# xmcd CD database file
#
# Track frame offsets:
#	150
#	23639
#	42418
#	66302
#	89100
#	117774
#	140358
#	167243
#	200072
#	216907
#
# Disc length: 3233 seconds
#
# Revision: 0
# Processed by: cddbd v1.5.2PL0 Copyright (c) Steve Scherf et al.
# Submitted via: CDex 1.79
#
DISCID=980c9f0a
DTITLE=Joerg Enz, Stewy von Wattenwyl, Patrick Manzecchi - Out of the Box
DYEAR=2011
DGENRE=Jazz
TTITLE0=Peace
TTITLE1=Holy Winter
TTITLE2=Jeannine
TTITLE3=Emily
TTITLE4=Fried Pies
TTITLE5=Raining Joy
TTITLE6=Out of the Box
TTITLE7=These Foolish Things
TTITLE8=Cedars Blues
TTITLE9=Wanzentanz
EXTD=YEAR: 2011
EXTT0=
EXTT1=
EXTT2=
EXTT3=
EXTT4=
EXTT5=
EXTT6=
EXTT7=
EXTT8=
EXTT9=
PLAYORDER=
